<?xml version="1.0" encoding="UTF-8" standalone="no"?>
<!DOCTYPE svg PUBLIC "-//W3C//DTD SVG 1.1//EN" "http://www.w3.org/Graphics/SVG/1.1/DTD/svg11.dtd">
<svg width="100%" height="100%" viewBox="0 0 800 800" version="1.1" xmlns="http://www.w3.org/2000/svg" xmlns:xlink="http://www.w3.org/1999/xlink" xml:space="preserve" xmlns:serif="http://www.serif.com/" style="fill-rule:evenodd;clip-rule:evenodd;stroke-linejoin:round;stroke-miterlimit:2;">
    <g transform="matrix(1,0,0,1,-4230.94,-1689.74)">
        <g transform="matrix(1,0,0,1,5.93656,1689.74)">
            <rect id="parfuma---1---Couleur" serif:id="parfuma - 1 - Couleur" x="4225" y="0" width="800" height="800" style="fill:none;"/>
            <g id="parfuma---1---Couleur1" serif:id="parfuma - 1 - Couleur">
                <g transform="matrix(1,0,0,1,-5.18968e-05,-841.433)">
                    <path d="M4618.81,1236.47L4618.81,1273.91C4608.92,1273.91 4599.43,1269.98 4592.44,1262.99C4585.45,1255.99 4581.52,1246.51 4581.52,1236.62L4581.52,1209.65C4581.52,1199.76 4585.45,1190.28 4592.44,1183.29C4599.43,1176.29 4608.92,1172.36 4618.81,1172.36L4618.81,1206.12C4614.05,1207.65 4609.82,1209.2 4607.86,1212.49C4603.33,1220.09 4605.83,1229.93 4613.43,1234.46C4615.14,1235.48 4616.96,1236.14 4618.81,1236.47ZM4630.04,1201.83L4630.04,1129.34C4630.04,1108.11 4647.25,1090.9 4668.48,1090.9C4668.48,1090.9 4668.48,1165.99 4668.48,1213.67C4668.48,1234.9 4651.27,1252.11 4630.04,1252.11L4630.04,1234.33C4632.18,1233.02 4634.03,1231.19 4635.4,1228.89C4640.47,1220.38 4640.93,1202.94 4638.59,1192.22C4636.9,1196.89 4633.74,1199.79 4630.04,1201.83Z" style="fill:rgb(12,78,144);"/>
                    <clipPath id="_clip1">
                        <path d="M4618.81,1236.47L4618.81,1273.91C4608.92,1273.91 4599.43,1269.98 4592.44,1262.99C4585.45,1255.99 4581.52,1246.51 4581.52,1236.62L4581.52,1209.65C4581.52,1199.76 4585.45,1190.28 4592.44,1183.29C4599.43,1176.29 4608.92,1172.36 4618.81,1172.36L4618.81,1206.12C4614.05,1207.65 4609.82,1209.2 4607.86,1212.49C4603.33,1220.09 4605.83,1229.93 4613.43,1234.46C4615.14,1235.48 4616.96,1236.14 4618.81,1236.47ZM4630.04,1201.83L4630.04,1129.34C4630.04,1108.11 4647.25,1090.9 4668.48,1090.9C4668.48,1090.9 4668.48,1165.99 4668.48,1213.67C4668.48,1234.9 4651.27,1252.11 4630.04,1252.11L4630.04,1234.33C4632.18,1233.02 4634.03,1231.19 4635.4,1228.89C4640.47,1220.38 4640.93,1202.94 4638.59,1192.22C4636.9,1196.89 4633.74,1199.79 4630.04,1201.83Z"/>
                    </clipPath>
                    <g clip-path="url(#_clip1)">
                        <g transform="matrix(1.99981,0,0,1.99981,4379.71,972.378)">
                            <path d="M119.563,100.002L119.562,100.002C114.617,100.002 109.874,101.966 106.377,105.463C102.88,108.96 100.916,113.703 100.916,118.648C100.916,123.046 100.916,127.734 100.916,132.132C100.916,137.077 102.88,141.82 106.377,145.317C109.874,148.814 114.617,150.778 119.562,150.778C119.562,150.778 119.563,150.778 119.563,150.778L119.563,100.002Z" style="fill:rgb(12,78,144);"/>
                        </g>
                        <g transform="matrix(1.99981,0,0,4.07208,4369.71,682.515)">
                            <path d="M149.397,100.289L149.397,100.289C138.782,100.289 130.177,104.515 130.177,109.728L130.177,139.877L130.177,139.877C140.792,139.877 149.397,135.651 149.397,130.438L149.397,100.289Z" style="fill:rgb(12,78,144);"/>
                        </g>
                    </g>
                </g>
                <g transform="matrix(0.858622,0,0,0.858622,2770.66,25.9293)">
                    <path d="M1908.24,583.93L1884.33,583.93C1882.22,583.93 1880.22,583.534 1878.32,582.742C1876.42,581.95 1874.76,580.87 1873.32,579.502C1871.88,578.134 1870.72,576.538 1869.86,574.714C1869,572.89 1868.49,570.922 1868.35,568.81L1868.35,559.882C1868.35,557.674 1868.77,555.598 1869.61,553.654C1870.45,551.71 1871.59,550.018 1873.03,548.578C1874.47,547.138 1876.16,545.998 1878.1,545.158C1880.05,544.318 1882.12,543.898 1884.33,543.898L1895.92,543.898L1895.92,528.562L1908.24,528.562L1908.24,583.93ZM1878.86,567.904C1878.86,568.629 1879,569.331 1879.29,570.008C1879.58,570.685 1879.98,571.278 1880.48,571.785C1880.98,572.293 1881.57,572.704 1882.24,573.018C1882.91,573.333 1883.61,573.49 1884.33,573.49L1895.92,573.49L1895.92,554.338L1884.33,554.338C1883.61,554.338 1882.91,554.495 1882.24,554.809C1881.57,555.123 1880.98,555.534 1880.48,556.042C1879.98,556.55 1879.58,557.13 1879.29,557.784C1879,558.437 1878.86,559.126 1878.86,559.851L1878.86,567.904Z" style="fill:rgb(12,78,144);fill-rule:nonzero;"/>
                    <path d="M1927.89,586.306C1927.8,588.418 1927.34,590.386 1926.52,592.21C1925.71,594.034 1924.54,595.63 1923.03,596.998C1921.52,598.366 1919.69,599.446 1917.56,600.238C1915.42,601.03 1912.96,601.426 1910.18,601.426L1905.72,601.426L1905.72,590.986L1910.18,590.986C1910.9,590.986 1911.58,590.842 1912.23,590.553C1912.88,590.265 1913.45,589.868 1913.96,589.363C1914.46,588.859 1914.87,588.27 1915.18,587.597C1915.5,586.924 1915.65,586.227 1915.65,585.506L1915.72,585.506L1915.65,561.781L1915.65,543.898L1927.89,543.898L1927.89,586.306Z" style="fill:rgb(12,78,144);fill-rule:nonzero;"/>
                    <path d="M1972.6,558.73L1972.6,567.514L1944.95,567.586L1944.95,568.679C1944.95,570.137 1945.51,571.291 1946.61,572.142C1947.72,572.992 1949.01,573.418 1950.5,573.418L1966.19,573.418L1966.19,583.858L1950.5,583.858C1947.62,583.858 1945.09,583.474 1942.92,582.706C1940.75,581.938 1938.91,580.882 1937.4,579.538C1935.9,578.194 1934.77,576.598 1934.01,574.75C1933.24,572.902 1932.86,570.874 1932.86,568.666L1932.79,558.37L1932.86,558.37C1932.95,556.258 1933.41,554.29 1934.22,552.466C1935.03,550.642 1936.19,549.046 1937.69,547.678C1939.19,546.31 1941.01,545.23 1943.13,544.438C1945.26,543.646 1947.72,543.25 1950.5,543.25L1954.89,543.25C1957.63,543.25 1960.08,543.658 1962.24,544.474C1964.39,545.29 1966.22,546.406 1967.71,547.822C1969.19,549.238 1970.36,550.882 1971.2,552.754C1972.04,554.626 1972.51,556.618 1972.6,558.73ZM1960.29,558.73C1960.05,557.415 1959.41,556.246 1958.38,555.224C1957.35,554.201 1956.19,553.69 1954.89,553.69L1950.5,553.69C1949.11,553.69 1947.88,554.189 1946.83,555.187C1945.77,556.185 1945.17,557.366 1945.03,558.73L1960.29,558.73Z" style="fill:rgb(12,78,144);fill-rule:nonzero;"/>
                    <path d="M1995.21,554.194C1993.05,554.194 1991.61,554.446 1990.89,554.95C1990.17,555.454 1989.81,556.114 1989.81,556.93C1989.81,557.266 1989.87,557.59 1989.99,557.902C1990.11,558.214 1990.37,558.478 1990.75,558.694C1991.13,558.91 1991.68,559.09 1992.37,559.234C1993.07,559.378 1994.02,559.45 1995.23,559.45L1999.63,559.45C2005.31,559.45 2009.65,560.35 2012.66,562.15C2015.67,563.95 2017.17,567.034 2017.17,571.402C2017.17,575.77 2015.67,579.058 2012.66,581.266C2009.66,583.474 2005.32,584.578 1999.64,584.578L1995.24,584.578C1989.57,584.578 1985.23,583.378 1982.22,580.978C1979.22,578.578 1977.72,575.194 1977.72,570.826L1989.81,570.826C1989.81,571.354 1989.86,571.822 1989.96,572.23C1990.05,572.638 1990.29,572.986 1990.67,573.274C1991.06,573.562 1991.6,573.778 1992.3,573.922C1992.99,574.066 1993.96,574.138 1995.21,574.138L1999.6,574.138C2001.76,574.138 2003.22,573.886 2003.96,573.382C2004.7,572.878 2005.08,572.218 2005.08,571.402C2005.08,571.066 2005.02,570.742 2004.89,570.43C2004.78,570.118 2004.52,569.854 2004.14,569.638C2003.76,569.422 2003.2,569.242 2002.48,569.098C2001.76,568.954 2000.8,568.882 1999.6,568.882L1995.21,568.882C1989.55,568.882 1985.22,567.982 1982.22,566.182C1979.22,564.382 1977.72,561.298 1977.72,556.93C1977.72,552.562 1979.22,549.274 1982.22,547.066C1985.23,544.858 1989.57,543.754 1995.24,543.754L1999.64,543.754C2005.32,543.754 2009.66,544.942 2012.66,547.318C2015.67,549.694 2017.17,553.09 2017.17,557.506L2005.08,557.506C2005.08,556.978 2005.03,556.51 2004.93,556.102C2004.84,555.694 2004.6,555.346 2004.21,555.058C2003.83,554.77 2003.28,554.554 2002.56,554.41C2001.84,554.266 2000.85,554.194 1999.6,554.194L1995.21,554.194Z" style="fill:rgb(12,78,144);fill-rule:nonzero;"/>
                    <path d="M2039.56,554.194C2037.4,554.194 2035.96,554.446 2035.24,554.95C2034.52,555.454 2034.16,556.114 2034.16,556.93C2034.16,557.266 2034.22,557.59 2034.34,557.902C2034.46,558.214 2034.72,558.478 2035.1,558.694C2035.49,558.91 2036.03,559.09 2036.73,559.234C2037.42,559.378 2038.37,559.45 2039.58,559.45L2043.98,559.45C2049.66,559.45 2054,560.35 2057.01,562.15C2060.02,563.95 2061.52,567.034 2061.52,571.402C2061.52,575.77 2060.02,579.058 2057.01,581.266C2054.01,583.474 2049.67,584.578 2044,584.578L2039.6,584.578C2033.92,584.578 2029.58,583.378 2026.58,580.978C2023.57,578.578 2022.07,575.194 2022.07,570.826L2034.16,570.826C2034.16,571.354 2034.21,571.822 2034.31,572.23C2034.4,572.638 2034.64,572.986 2035.03,573.274C2035.41,573.562 2035.95,573.778 2036.65,573.922C2037.34,574.066 2038.32,574.138 2039.56,574.138L2043.96,574.138C2046.12,574.138 2047.57,573.886 2048.31,573.382C2049.05,572.878 2049.43,572.218 2049.43,571.402C2049.43,571.066 2049.37,570.742 2049.25,570.43C2049.13,570.118 2048.88,569.854 2048.49,569.638C2048.11,569.422 2047.56,569.242 2046.84,569.098C2046.12,568.954 2045.15,568.882 2043.96,568.882L2039.56,568.882C2033.9,568.882 2029.57,567.982 2026.57,566.182C2023.57,564.382 2022.07,561.298 2022.07,556.93C2022.07,552.562 2023.57,549.274 2026.58,547.066C2029.58,544.858 2033.92,543.754 2039.6,543.754L2044,543.754C2049.67,543.754 2054.01,544.942 2057.01,547.318C2060.02,549.694 2061.52,553.09 2061.52,557.506L2049.43,557.506C2049.43,556.978 2049.38,556.51 2049.28,556.102C2049.19,555.694 2048.95,555.346 2048.56,555.058C2048.18,554.77 2047.63,554.554 2046.91,554.41C2046.19,554.266 2045.2,554.194 2043.96,554.194L2039.56,554.194Z" style="fill:rgb(12,78,144);fill-rule:nonzero;"/>
                    <path d="M2108.39,544.402L2108.39,586.018C2108.39,588.178 2108.01,590.218 2107.24,592.138C2106.47,594.058 2105.36,595.738 2103.89,597.178C2102.43,598.618 2100.61,599.758 2098.42,600.598C2096.24,601.438 2093.73,601.858 2090.9,601.858L2086.51,601.858C2083.68,601.858 2081.17,601.438 2078.98,600.598C2076.8,599.758 2074.97,598.618 2073.51,597.178C2072.05,595.738 2070.93,594.058 2070.16,592.138C2069.39,590.218 2069.01,588.178 2069.01,586.018L2081.18,586.018C2081.18,586.738 2081.32,587.422 2081.61,588.07C2081.9,588.718 2082.29,589.294 2082.79,589.798C2083.29,590.302 2083.87,590.698 2084.51,590.986C2085.16,591.274 2085.84,591.418 2086.55,591.418L2090.93,591.418C2091.64,591.418 2092.32,591.274 2092.97,590.986C2093.61,590.698 2094.19,590.302 2094.69,589.798C2095.19,589.294 2095.58,588.718 2095.87,588.07C2096.16,587.422 2096.3,586.738 2096.3,586.018L2096.3,584.074C2094.52,584.458 2092.72,584.65 2090.9,584.65L2086.51,584.65C2083.68,584.65 2081.17,584.242 2078.98,583.426C2076.8,582.61 2074.97,581.482 2073.51,580.042C2072.05,578.602 2070.93,576.922 2070.16,575.002C2069.39,573.082 2069.01,571.018 2069.01,568.81L2069.01,544.402L2081.11,544.402L2081.18,568.81C2081.18,570.25 2081.72,571.51 2082.79,572.59C2083.87,573.67 2085.12,574.21 2086.55,574.21L2090.93,574.21C2091.64,574.21 2092.32,574.066 2092.97,573.778C2093.61,573.49 2094.19,573.094 2094.69,572.59C2095.19,572.086 2095.58,571.51 2095.87,570.862C2096.16,570.214 2096.3,569.53 2096.3,568.81L2096.3,544.402L2108.39,544.402Z" style="fill:rgb(12,78,144);fill-rule:nonzero;"/>
                    <path d="M2176.94,567.946C2176.94,570.154 2176.52,572.23 2175.68,574.174C2174.84,576.118 2173.7,577.81 2172.26,579.25C2170.82,580.69 2169.13,581.83 2167.18,582.67C2165.24,583.51 2163.16,583.93 2160.95,583.93L2149.36,583.93L2149.36,601.282L2137.05,601.282L2137.05,543.898L2160.95,543.898C2163.07,543.898 2165.07,544.294 2166.97,545.086C2168.86,545.878 2170.53,546.958 2171.97,548.326C2173.41,549.694 2174.56,551.29 2175.43,553.114C2176.29,554.938 2176.8,556.906 2176.94,559.018L2176.94,567.946ZM2166.43,559.974C2166.43,558.481 2165.88,557.192 2164.77,556.108C2163.67,555.024 2162.39,554.482 2160.95,554.482L2149.36,554.482L2149.36,573.49L2160.95,573.49C2161.68,573.49 2162.36,573.345 2163.01,573.056C2163.66,572.767 2164.23,572.369 2164.74,571.864C2165.24,571.358 2165.65,570.767 2165.96,570.093C2166.27,569.418 2166.43,568.72 2166.43,567.997L2166.43,559.974Z" style="fill:rgb(12,78,144);fill-rule:nonzero;"/>
                    <path d="M2203.94,544.402C2206.77,544.402 2209.28,544.786 2211.48,545.554C2213.67,546.322 2215.51,547.378 2216.98,548.722C2218.45,550.066 2219.58,551.662 2220.35,553.51C2221.12,555.358 2221.51,557.386 2221.51,559.594L2221.58,583.93L2209.41,583.93L2209.41,581.194C2209.03,581.818 2208.38,582.394 2207.47,582.922C2206.65,583.354 2205.52,583.75 2204.08,584.11C2202.64,584.47 2200.7,584.65 2198.25,584.65C2196.04,584.65 2193.95,584.662 2191.99,584.686C2190.02,584.71 2188.3,584.446 2186.84,583.894C2185.38,583.342 2184.21,582.37 2183.35,580.978C2182.48,579.586 2182.05,577.474 2182.05,574.642L2182.05,571.474L2182.12,571.474C2182.17,568.882 2182.6,566.806 2183.42,565.246C2184.24,563.686 2185.34,562.51 2186.73,561.718C2188.12,560.926 2189.77,560.41 2191.66,560.17C2193.56,559.93 2195.64,559.81 2197.89,559.81L2197.89,559.882L2209.41,559.882L2209.41,559.594C2209.41,558.874 2209.26,558.19 2208.94,557.542C2208.63,556.894 2208.22,556.318 2207.72,555.814C2207.22,555.31 2206.64,554.902 2205.99,554.59C2205.34,554.278 2204.66,554.122 2203.94,554.122L2183.85,554.05L2183.85,544.402L2203.94,544.402ZM2209.41,571.618L2209.41,569.53L2196.6,569.53C2195.92,569.53 2195.35,569.77 2194.87,570.25C2194.39,570.73 2194.15,571.306 2194.15,571.978L2194.15,572.554C2194.15,573.226 2194.39,573.802 2194.87,574.282C2195.35,574.762 2195.92,575.002 2196.6,575.002L2206.17,575.002C2206.75,575.002 2207.28,574.882 2207.76,574.642C2208.14,574.402 2208.51,574.066 2208.87,573.634C2209.23,573.202 2209.41,572.53 2209.41,571.618Z" style="fill:rgb(12,78,144);fill-rule:nonzero;"/>
                    <path d="M2243.76,546.058C2244.67,545.194 2245.72,544.51 2246.92,544.006C2248.12,543.502 2249.49,543.25 2251.03,543.25L2254.91,543.25L2254.91,553.69L2251.03,553.69C2248.72,553.69 2246.93,554.267 2245.66,555.422C2244.39,556.576 2243.76,558.381 2243.76,560.835L2243.76,583.93L2231.51,583.93L2231.51,543.898L2243.76,543.898L2243.76,546.058Z" style="fill:rgb(12,78,144);fill-rule:nonzero;"/>
                    <path d="M2272.12,551.17L2280.19,551.17L2280.19,561.754L2272.12,561.754L2272.12,583.93L2259.88,583.93L2259.88,542.962L2259.95,542.962C2260.05,540.85 2260.51,538.87 2261.32,537.022C2262.14,535.174 2263.29,533.566 2264.78,532.198C2266.27,530.83 2268.09,529.75 2270.25,528.958C2272.41,528.166 2274.86,527.77 2277.6,527.77L2284.58,527.626L2284.58,538.21L2277.6,538.354C2276.88,538.354 2276.18,538.51 2275.51,538.822C2274.84,539.134 2274.25,539.542 2273.74,540.046C2273.24,540.55 2272.84,541.126 2272.55,541.774C2272.27,542.422 2272.12,543.106 2272.12,543.826L2272.12,551.17Z" style="fill:rgb(12,78,144);fill-rule:nonzero;"/>
                    <path d="M2317.99,583.93L2317.99,581.77C2317.08,582.634 2316.02,583.318 2314.82,583.822C2313.62,584.326 2312.23,584.578 2310.64,584.578L2308.05,584.578C2305.17,584.578 2302.64,584.158 2300.45,583.318C2298.27,582.478 2296.42,581.326 2294.91,579.862C2293.4,578.398 2292.26,576.694 2291.49,574.75C2290.72,572.806 2290.34,570.73 2290.34,568.522L2290.34,543.898L2302.43,543.898L2302.51,568.522C2302.51,569.962 2303.06,571.234 2304.17,572.338C2305.28,573.442 2306.56,573.994 2308.01,573.994L2310.61,573.994C2312.92,573.994 2314.73,573.43 2316.03,572.302C2317.34,571.174 2317.99,569.386 2317.99,566.938L2317.99,543.898L2330.23,543.898L2330.23,583.93L2317.99,583.93Z" style="fill:rgb(12,78,144);fill-rule:nonzero;"/>
                    <path d="M2407.77,583.93L2395.6,583.93L2395.53,559.234C2395.53,557.794 2394.98,556.534 2393.88,555.454C2392.77,554.374 2391.5,553.834 2390.06,553.834L2387.47,553.834C2385.16,553.834 2383.36,554.398 2382.07,555.526C2380.77,556.654 2380.12,558.442 2380.12,560.89L2380.12,583.93L2367.88,583.93L2367.88,559.234C2367.88,557.794 2367.33,556.534 2366.23,555.454C2365.12,554.374 2363.85,553.834 2362.41,553.834L2359.75,553.834C2357.44,553.834 2355.66,554.398 2354.38,555.526C2353.11,556.654 2352.47,558.442 2352.47,560.89L2352.47,583.93L2340.24,583.93L2340.24,543.898L2352.47,543.898L2352.47,546.058C2353.39,545.194 2354.44,544.51 2355.64,544.006C2356.84,543.502 2358.21,543.25 2359.75,543.25L2362.41,543.25C2365.05,543.25 2367.4,543.61 2369.47,544.33C2371.53,545.05 2373.33,546.034 2374.87,547.282C2376.4,546.034 2378.22,545.05 2380.3,544.33C2382.39,543.61 2384.78,543.25 2387.47,543.25L2390.06,543.25C2392.94,543.25 2395.47,543.67 2397.66,544.51C2399.84,545.35 2401.69,546.49 2403.2,547.93C2404.71,549.37 2405.85,551.062 2406.62,553.006C2407.39,554.95 2407.77,557.026 2407.77,559.234L2407.77,583.93Z" style="fill:rgb(12,78,144);fill-rule:nonzero;"/>
                    <path d="M2437.15,544.402C2439.98,544.402 2442.49,544.786 2444.69,545.554C2446.88,546.322 2448.72,547.378 2450.19,548.722C2451.66,550.066 2452.78,551.662 2453.56,553.51C2454.33,555.358 2454.72,557.386 2454.72,559.594L2454.79,583.93L2442.62,583.93L2442.62,581.194C2442.24,581.818 2441.59,582.394 2440.68,582.922C2439.86,583.354 2438.73,583.75 2437.29,584.11C2435.85,584.47 2433.91,584.65 2431.46,584.65C2429.25,584.65 2427.16,584.662 2425.2,584.686C2423.23,584.71 2421.51,584.446 2420.05,583.894C2418.58,583.342 2417.42,582.37 2416.55,580.978C2415.69,579.586 2415.26,577.474 2415.26,574.642L2415.26,571.474L2415.33,571.474C2415.38,568.882 2415.81,566.806 2416.63,565.246C2417.44,563.686 2418.55,562.51 2419.94,561.718C2421.33,560.926 2422.97,560.41 2424.87,560.17C2426.77,559.93 2428.84,559.81 2431.1,559.81L2431.1,559.882L2442.62,559.882L2442.62,559.594C2442.62,558.874 2442.46,558.19 2442.15,557.542C2441.84,556.894 2441.43,556.318 2440.93,555.814C2440.42,555.31 2439.85,554.902 2439.2,554.59C2438.55,554.278 2437.87,554.122 2437.15,554.122L2417.06,554.05L2417.06,544.402L2437.15,544.402ZM2442.62,571.618L2442.62,569.53L2429.8,569.53C2429.13,569.53 2428.55,569.77 2428.08,570.25C2427.6,570.73 2427.36,571.306 2427.36,571.978L2427.36,572.554C2427.36,573.226 2427.6,573.802 2428.08,574.282C2428.55,574.762 2429.13,575.002 2429.8,575.002L2439.38,575.002C2439.95,575.002 2440.48,574.882 2440.96,574.642C2441.35,574.402 2441.72,574.066 2442.08,573.634C2442.44,573.202 2442.62,572.53 2442.62,571.618Z" style="fill:rgb(12,78,144);fill-rule:nonzero;"/>
                </g>
            </g>
        </g>
    </g>
</svg>
