<?xml version="1.0" encoding="UTF-8" standalone="no"?>
<!DOCTYPE svg PUBLIC "-//W3C//DTD SVG 1.1//EN" "http://www.w3.org/Graphics/SVG/1.1/DTD/svg11.dtd">
<svg width="100%" height="100%" viewBox="0 0 800 800" version="1.1" xmlns="http://www.w3.org/2000/svg" xmlns:xlink="http://www.w3.org/1999/xlink" xml:space="preserve" xmlns:serif="http://www.serif.com/" style="fill-rule:evenodd;clip-rule:evenodd;stroke-linejoin:round;stroke-miterlimit:2;">
    <g transform="matrix(1,0,0,1,-2525,0)">
        <rect id="Iteration-4" x="2525" y="0" width="800" height="800" style="fill:none;"/>
        <g id="Iteration-41" serif:id="Iteration-4">
            <g transform="matrix(2.75841,0,0,2.75841,1534.51,-259.074)">
                <path d="M501.61,208.879L501.61,249.53C497.651,249.53 493.854,247.958 491.054,245.158C488.255,242.359 486.682,238.562 486.682,234.602L486.682,223.807C486.682,219.848 488.255,216.051 491.054,213.251C493.854,210.452 497.651,208.879 501.61,208.879ZM521.496,176.266C521.496,176.266 521.496,206.326 521.496,225.415C521.496,233.914 514.607,240.803 506.109,240.803L506.108,191.653C506.108,183.155 512.998,176.266 521.496,176.266Z"/>
            </g>
            <g transform="matrix(1,0,0,1,895.805,-34.9735)">
                <path d="M1922.35,583.93L1890.48,583.93C1887.66,583.93 1884.99,583.402 1882.46,582.346C1879.93,581.29 1877.71,579.85 1875.79,578.026C1873.87,576.202 1872.33,574.074 1871.18,571.642C1870.03,569.21 1869.36,566.586 1869.16,563.77L1869.16,551.866C1869.16,548.922 1869.72,546.154 1870.84,543.562C1871.96,540.97 1873.48,538.714 1875.4,536.794C1877.32,534.874 1879.58,533.354 1882.17,532.234C1884.76,531.114 1887.53,530.554 1890.48,530.554L1905.93,530.554L1905.93,510.106L1922.35,510.106L1922.35,583.93ZM1883.18,562.562C1883.18,563.529 1883.37,564.464 1883.76,565.367C1884.14,566.27 1884.67,567.06 1885.34,567.737C1886.01,568.414 1886.8,568.962 1887.69,569.381C1888.59,569.8 1889.52,570.01 1890.48,570.01L1905.93,570.01L1905.93,544.474L1890.48,544.474C1889.52,544.474 1888.59,544.683 1887.69,545.102C1886.8,545.521 1886.01,546.069 1885.34,546.746C1884.67,547.423 1884.14,548.197 1883.76,549.068C1883.37,549.939 1883.18,550.858 1883.18,551.825L1883.18,562.562Z" style="fill:rgb(35,31,32);fill-rule:nonzero;"/>
                <path d="M1948.56,587.098C1948.43,589.914 1947.82,592.538 1946.73,594.97C1945.64,597.402 1944.09,599.53 1942.08,601.354C1940.06,603.178 1937.63,604.618 1934.78,605.674C1931.93,606.73 1928.65,607.258 1924.94,607.258L1918.99,607.258L1918.99,593.338L1924.94,593.338C1925.9,593.338 1926.81,593.145 1927.67,592.761C1928.54,592.376 1929.31,591.848 1929.98,591.175C1930.65,590.502 1931.19,589.716 1931.61,588.819C1932.03,587.921 1932.24,586.992 1932.24,586.031L1932.33,586.031L1932.24,554.398L1932.24,530.554L1948.56,530.554L1948.56,587.098Z" style="fill:rgb(35,31,32);fill-rule:nonzero;"/>
                <path d="M2008.17,550.33L2008.17,562.042L1971.31,562.138L1971.31,563.596C1971.31,565.54 1972.04,567.079 1973.52,568.213C1974.99,569.347 1976.72,569.914 1978.7,569.914L1999.63,569.914L1999.63,583.834L1978.7,583.834C1974.86,583.834 1971.49,583.322 1968.59,582.298C1965.69,581.274 1963.24,579.866 1961.24,578.074C1959.24,576.282 1957.72,574.154 1956.71,571.69C1955.69,569.226 1955.18,566.522 1955.18,563.578L1955.08,549.85L1955.18,549.85C1955.31,547.034 1955.91,544.41 1956.99,541.978C1958.07,539.546 1959.62,537.418 1961.62,535.594C1963.63,533.77 1966.05,532.33 1968.88,531.274C1971.71,530.218 1974.99,529.69 1978.7,529.69L1984.56,529.69C1988.2,529.69 1991.47,530.234 1994.35,531.322C1997.23,532.41 1999.66,533.898 2001.64,535.786C2003.63,537.674 2005.18,539.866 2006.3,542.362C2007.42,544.858 2008.04,547.514 2008.17,550.33ZM1991.76,550.33C1991.43,548.577 1990.59,547.018 1989.21,545.655C1987.84,544.291 1986.28,543.61 1984.56,543.61L1978.7,543.61C1976.84,543.61 1975.21,544.275 1973.8,545.606C1972.39,546.937 1971.6,548.512 1971.4,550.33L1991.76,550.33Z" style="fill:rgb(35,31,32);fill-rule:nonzero;"/>
                <path d="M2038.32,544.282C2035.43,544.282 2033.52,544.618 2032.56,545.29C2031.6,545.962 2031.12,546.842 2031.12,547.93C2031.12,548.378 2031.2,548.81 2031.36,549.226C2031.52,549.642 2031.85,549.994 2032.37,550.282C2032.88,550.57 2033.6,550.81 2034.53,551.002C2035.46,551.194 2036.73,551.29 2038.34,551.29L2044.21,551.29C2051.78,551.29 2057.57,552.49 2061.58,554.89C2065.59,557.29 2067.6,561.402 2067.6,567.226C2067.6,573.05 2065.59,577.434 2061.58,580.378C2057.58,583.322 2051.79,584.794 2044.23,584.794L2038.36,584.794C2030.79,584.794 2025.01,583.194 2021,579.994C2016.99,576.794 2014.99,572.282 2014.99,566.458L2031.12,566.458C2031.12,567.162 2031.18,567.786 2031.31,568.33C2031.43,568.874 2031.76,569.338 2032.27,569.722C2032.78,570.106 2033.5,570.394 2034.43,570.586C2035.36,570.778 2036.65,570.874 2038.32,570.874L2044.17,570.874C2047.05,570.874 2048.99,570.538 2049.98,569.866C2050.97,569.194 2051.47,568.314 2051.47,567.226C2051.47,566.778 2051.39,566.346 2051.23,565.93C2051.07,565.514 2050.73,565.162 2050.22,564.874C2049.71,564.586 2048.97,564.346 2048.01,564.154C2047.05,563.962 2045.77,563.866 2044.17,563.866L2038.32,563.866C2030.76,563.866 2024.99,562.666 2020.99,560.266C2016.99,557.866 2014.99,553.754 2014.99,547.93C2014.99,542.106 2016.99,537.722 2021,534.778C2025.01,531.834 2030.79,530.362 2038.36,530.362L2044.23,530.362C2051.79,530.362 2057.58,531.946 2061.58,535.114C2065.59,538.282 2067.6,542.81 2067.6,548.698L2051.47,548.698C2051.47,547.994 2051.4,547.37 2051.28,546.826C2051.15,546.282 2050.83,545.818 2050.32,545.434C2049.8,545.05 2049.07,544.762 2048.11,544.57C2047.15,544.378 2045.84,544.282 2044.17,544.282L2038.32,544.282Z" style="fill:rgb(35,31,32);fill-rule:nonzero;"/>
                <path d="M2097.45,544.282C2094.57,544.282 2092.65,544.618 2091.69,545.29C2090.73,545.962 2090.25,546.842 2090.25,547.93C2090.25,548.378 2090.33,548.81 2090.49,549.226C2090.65,549.642 2090.99,549.994 2091.5,550.282C2092.02,550.57 2092.74,550.81 2093.67,551.002C2094.6,551.194 2095.87,551.29 2097.47,551.29L2103.34,551.29C2110.91,551.29 2116.7,552.49 2120.72,554.89C2124.73,557.29 2126.73,561.402 2126.73,567.226C2126.73,573.05 2124.73,577.434 2120.72,580.378C2116.71,583.322 2110.93,584.794 2103.36,584.794L2097.49,584.794C2089.93,584.794 2084.14,583.194 2080.14,579.994C2076.13,576.794 2074.12,572.282 2074.12,566.458L2090.25,566.458C2090.25,567.162 2090.32,567.786 2090.44,568.33C2090.57,568.874 2090.89,569.338 2091.4,569.722C2091.91,570.106 2092.64,570.394 2093.56,570.586C2094.49,570.778 2095.79,570.874 2097.45,570.874L2103.31,570.874C2106.19,570.874 2108.12,570.538 2109.12,569.866C2110.11,569.194 2110.6,568.314 2110.6,567.226C2110.6,566.778 2110.52,566.346 2110.36,565.93C2110.2,565.514 2109.87,565.162 2109.36,564.874C2108.84,564.586 2108.11,564.346 2107.15,564.154C2106.19,563.962 2104.91,563.866 2103.31,563.866L2097.45,563.866C2089.9,563.866 2084.12,562.666 2080.12,560.266C2076.12,557.866 2074.12,553.754 2074.12,547.93C2074.12,542.106 2076.13,537.722 2080.14,534.778C2084.14,531.834 2089.93,530.362 2097.49,530.362L2103.36,530.362C2110.93,530.362 2116.71,531.946 2120.72,535.114C2124.73,538.282 2126.73,542.81 2126.73,548.698L2110.6,548.698C2110.6,547.994 2110.54,547.37 2110.41,546.826C2110.28,546.282 2109.96,545.818 2109.45,545.434C2108.94,545.05 2108.2,544.762 2107.24,544.57C2106.28,544.378 2104.97,544.282 2103.31,544.282L2097.45,544.282Z" style="fill:rgb(35,31,32);fill-rule:nonzero;"/>
                <path d="M2189.23,531.226L2189.23,586.714C2189.23,589.594 2188.72,592.314 2187.69,594.874C2186.67,597.434 2185.18,599.674 2183.23,601.594C2181.28,603.514 2178.84,605.034 2175.93,606.154C2173.02,607.274 2169.68,607.834 2165.9,607.834L2160.04,607.834C2156.27,607.834 2152.92,607.274 2150.01,606.154C2147.1,605.034 2144.67,603.514 2142.72,601.594C2140.76,599.674 2139.28,597.434 2138.25,594.874C2137.23,592.314 2136.72,589.594 2136.72,586.714L2152.94,586.714C2152.94,587.674 2153.13,588.586 2153.51,589.45C2153.89,590.314 2154.42,591.082 2155.09,591.754C2155.76,592.426 2156.52,592.954 2157.38,593.338C2158.24,593.722 2159.15,593.914 2160.11,593.914L2165.93,593.914C2166.89,593.914 2167.8,593.722 2168.66,593.338C2169.52,592.954 2170.28,592.426 2170.95,591.754C2171.62,591.082 2172.14,590.314 2172.53,589.45C2172.91,588.586 2173.1,587.674 2173.1,586.714L2173.1,584.122C2170.73,584.634 2168.33,584.89 2165.9,584.89L2160.04,584.89C2156.27,584.89 2152.92,584.346 2150.01,583.258C2147.1,582.17 2144.67,580.666 2142.72,578.746C2140.76,576.826 2139.28,574.586 2138.25,572.026C2137.23,569.466 2136.72,566.714 2136.72,563.77L2136.72,531.226L2152.84,531.226L2152.94,563.77C2152.94,565.69 2153.66,567.37 2155.09,568.81C2156.52,570.25 2158.19,570.97 2160.11,570.97L2165.93,570.97C2166.89,570.97 2167.8,570.778 2168.66,570.394C2169.52,570.01 2170.28,569.482 2170.95,568.81C2171.62,568.138 2172.14,567.37 2172.53,566.506C2172.91,565.642 2173.1,564.73 2173.1,563.77L2173.1,531.226L2189.23,531.226Z" style="fill:rgb(35,31,32);fill-rule:nonzero;"/>
            </g>
        </g>
    </g>
</svg>
