<?xml version="1.0" encoding="UTF-8" standalone="no"?>
<!DOCTYPE svg PUBLIC "-//W3C//DTD SVG 1.1//EN" "http://www.w3.org/Graphics/SVG/1.1/DTD/svg11.dtd">
<svg width="100%" height="100%" viewBox="0 0 87 184" version="1.1" xmlns="http://www.w3.org/2000/svg" xmlns:xlink="http://www.w3.org/1999/xlink" xml:space="preserve" xmlns:serif="http://www.serif.com/" style="fill-rule:evenodd;clip-rule:evenodd;stroke-linejoin:round;stroke-miterlimit:2;">
    <g transform="matrix(1,0,0,1,-4587.46,-1939.21)">
        <g transform="matrix(1,0,0,1,5.93656,1689.74)">
            <g transform="matrix(1,0,0,1,-5.18968e-05,-841.433)">
                <path d="M4618.81,1236.47L4618.81,1273.91C4608.92,1273.91 4599.43,1269.98 4592.44,1262.99C4585.45,1255.99 4581.52,1246.51 4581.52,1236.62L4581.52,1209.65C4581.52,1199.76 4585.45,1190.28 4592.44,1183.29C4599.43,1176.29 4608.92,1172.36 4618.81,1172.36L4618.81,1206.12C4614.05,1207.65 4609.82,1209.2 4607.86,1212.49C4603.33,1220.09 4605.83,1229.93 4613.43,1234.46C4615.14,1235.48 4616.96,1236.14 4618.81,1236.47ZM4630.04,1201.83L4630.04,1129.34C4630.04,1108.11 4647.25,1090.9 4668.48,1090.9C4668.48,1090.9 4668.48,1165.99 4668.48,1213.67C4668.48,1234.9 4651.27,1252.11 4630.04,1252.11L4630.04,1234.33C4632.18,1233.02 4634.03,1231.19 4635.4,1228.89C4640.47,1220.38 4640.93,1202.94 4638.59,1192.22C4636.9,1196.89 4633.74,1199.79 4630.04,1201.83Z" style="fill:rgb(12,78,144);"/>
                <clipPath id="_clip1">
                    <path d="M4618.81,1236.47L4618.81,1273.91C4608.92,1273.91 4599.43,1269.98 4592.44,1262.99C4585.45,1255.99 4581.52,1246.51 4581.52,1236.62L4581.52,1209.65C4581.52,1199.76 4585.45,1190.28 4592.44,1183.29C4599.43,1176.29 4608.92,1172.36 4618.81,1172.36L4618.81,1206.12C4614.05,1207.65 4609.82,1209.2 4607.86,1212.49C4603.33,1220.09 4605.83,1229.93 4613.43,1234.46C4615.14,1235.48 4616.96,1236.14 4618.81,1236.47ZM4630.04,1201.83L4630.04,1129.34C4630.04,1108.11 4647.25,1090.9 4668.48,1090.9C4668.48,1090.9 4668.48,1165.99 4668.48,1213.67C4668.48,1234.9 4651.27,1252.11 4630.04,1252.11L4630.04,1234.33C4632.18,1233.02 4634.03,1231.19 4635.4,1228.89C4640.47,1220.38 4640.93,1202.94 4638.59,1192.22C4636.9,1196.89 4633.74,1199.79 4630.04,1201.83Z"/>
                </clipPath>
                <g clip-path="url(#_clip1)">
                    <g transform="matrix(1.99981,0,0,1.99981,4379.71,972.378)">
                        <path d="M119.563,100.002L119.562,100.002C114.617,100.002 109.874,101.966 106.377,105.463C102.88,108.96 100.916,113.703 100.916,118.648C100.916,123.046 100.916,127.734 100.916,132.132C100.916,137.077 102.88,141.82 106.377,145.317C109.874,148.814 114.617,150.778 119.562,150.778C119.562,150.778 119.563,150.778 119.563,150.778L119.563,100.002Z" style="fill:rgb(12,78,144);"/>
                    </g>
                    <g transform="matrix(1.99981,0,0,4.07208,4369.71,682.515)">
                        <path d="M149.397,100.289L149.397,100.289C138.782,100.289 130.177,104.515 130.177,109.728L130.177,139.877L130.177,139.877C140.792,139.877 149.397,135.651 149.397,130.438L149.397,100.289Z" style="fill:rgb(12,78,144);"/>
                    </g>
                </g>
            </g>
        </g>
    </g>
</svg>
